# xmcd
# Copyright (C) 1995-1998 Ti Kan
#
# Track frame offsets:
#       150
#       16639
#       30910
#       45829
#       63168
#       82190
#       99977
#       120438
#       132994
#       152291
#       175839
#
# Disc length: 2597 seconds
#
# Revision: 0
# Processed by: cddbd v1.5.2PL0 Copyright (c) Steve Scherf et al.
# Submitted via: CD-Import v1.0
#
DISCID=6d0a230b
DTITLE=Stephan Eicher - Eldorado
DYEAR=2007
DGENRE=
TTITLE0=Confettis
TTITLE1=Rendez-Vous
TTITLE2=Wess Nid Was Es Isch
TTITLE3=Dimanche En Décembre
TTITLE4=(I Cry At) Commercials
TTITLE5=Voyage
TTITLE6=Solitaires
TTITLE7=Pas Déplu
TTITLE8=Charly
TTITLE9=Eldorado
TTITLE10=Zrügg Zu Mir
EXTD=
EXTT0=
EXTT1=
EXTT2=
EXTT3=
EXTT4=
EXTT5=
EXTT6=
EXTT7=
EXTT8=
EXTT9=
EXTT10=
PLAYORDER=
